# MagicaVoxel @ Ephtracy

# group
o 

# material
mtllib 3x3x3_01.mtl
usemtl palette

# normals
vn -1 0 0
vn 1 0 0
vn 0 0 1
vn 0 0 -1
vn 0 -1 0
vn 0 1 0

# texcoords
vt 0.705078 0.5
vt 0.826172 0.5
vt 0.958984 0.5
vt 0.962891 0.5
vt 0.978516 0.5
vt 0.994141 0.5

# verts
v -0.9 0 0.9
v -0.9 0 -1
v -0.9 0.1 0.8
v -0.9 0.1 -0.9
v -0.9 0.4 0.8
v -0.9 0.4 -0.9
v -0.9 0.5 0.8
v -0.9 0.5 -0.9
v -0.9 0.7 0.4
v -0.9 0.7 0.3
v -0.9 0.7 0.2
v -0.9 0.7 0.1
v -0.9 0.7 -0.2
v -0.9 0.7 -0.3
v -0.9 0.7 -0.4
v -0.9 0.7 -0.5
v -0.9 1 0.2
v -0.9 1 0.1
v -0.9 1 -0.2
v -0.9 1 -0.3
v -0.9 1.1 0.1
v -0.9 1.1 -0.2
v -0.9 1.2 0.6
v -0.9 1.2 0.4
v -0.9 1.2 0.3
v -0.9 1.2 0.1
v -0.9 1.2 -0.2
v -0.9 1.2 -0.4
v -0.9 1.2 -0.5
v -0.9 1.2 -0.7
v -0.9 1.3 0.6
v -0.9 1.3 0.1
v -0.9 1.3 -0.2
v -0.9 1.3 -0.7
v -0.9 1.5 0.8
v -0.9 1.5 -0.9
v -0.9 1.6 0.8
v -0.9 1.6 -0.9
v -0.9 1.9 0.8
v -0.9 1.9 -0.9
v -0.9 2 0.9
v -0.9 2 -1
v 0.9 0 0.9
v 0.9 0 -1
v 0.9 0.1 0.8
v 0.9 0.1 -0.9
v 0.9 0.4 0.8
v 0.9 0.4 -0.9
v 0.9 0.5 0.8
v 0.9 0.5 -0.9
v 0.9 0.7 0.4
v 0.9 0.7 0.3
v 0.9 0.7 0.2
v 0.9 0.7 0.1
v 0.9 0.7 -0.2
v 0.9 0.7 -0.3
v 0.9 0.7 -0.4
v 0.9 0.7 -0.5
v 0.9 1 0.2
v 0.9 1 0.1
v 0.9 1 -0.2
v 0.9 1 -0.3
v 0.9 1.1 0.1
v 0.9 1.1 -0.2
v 0.9 1.2 0.6
v 0.9 1.2 0.4
v 0.9 1.2 0.3
v 0.9 1.2 0.1
v 0.9 1.2 -0.2
v 0.9 1.2 -0.4
v 0.9 1.2 -0.5
v 0.9 1.2 -0.7
v 0.9 1.3 0.6
v 0.9 1.3 0.1
v 0.9 1.3 -0.2
v 0.9 1.3 -0.7
v 0.9 1.5 0.8
v 0.9 1.5 -0.9
v 0.9 1.6 0.8
v 0.9 1.6 -0.9
v 0.9 1.9 0.8
v 0.9 1.9 -0.9
v 0.9 2 0.9
v 0.9 2 -1
v -0.9 0 0.9
v -0.9 2 0.9
v -0.8 0.1 0.9
v -0.8 0.4 0.9
v -0.8 0.5 0.9
v -0.8 1.5 0.9
v -0.8 1.6 0.9
v -0.8 1.9 0.9
v -0.6 1.2 0.9
v -0.6 1.3 0.9
v -0.4 0.7 0.9
v -0.4 1.2 0.9
v -0.3 0.7 0.9
v -0.3 1.2 0.9
v -0.2 0.7 0.9
v -0.2 1 0.9
v -0.1 0.7 0.9
v -0.1 1 0.9
v -0.1 1.1 0.9
v -0.1 1.2 0.9
v -0.1 1.3 0.9
v 0.1 0.7 0.9
v 0.1 1 0.9
v 0.1 1.1 0.9
v 0.1 1.2 0.9
v 0.1 1.3 0.9
v 0.2 0.7 0.9
v 0.2 1 0.9
v 0.3 0.7 0.9
v 0.3 1.2 0.9
v 0.4 0.7 0.9
v 0.4 1.2 0.9
v 0.6 1.2 0.9
v 0.6 1.3 0.9
v 0.8 0.1 0.9
v 0.8 0.4 0.9
v 0.8 0.5 0.9
v 0.8 1.5 0.9
v 0.8 1.6 0.9
v 0.8 1.9 0.9
v 0.9 0 0.9
v 0.9 2 0.9
v -0.9 0 -1
v -0.9 2 -1
v -0.8 0.1 -1
v -0.8 0.4 -1
v -0.8 0.5 -1
v -0.8 1.5 -1
v -0.8 1.6 -1
v -0.8 1.9 -1
v -0.6 1.2 -1
v -0.6 1.3 -1
v -0.4 0.7 -1
v -0.4 1.2 -1
v -0.3 0.7 -1
v -0.3 1.2 -1
v -0.2 0.7 -1
v -0.2 1 -1
v -0.1 0.7 -1
v -0.1 1 -1
v -0.1 1.1 -1
v -0.1 1.2 -1
v -0.1 1.3 -1
v 0.1 0.7 -1
v 0.1 1 -1
v 0.1 1.1 -1
v 0.1 1.2 -1
v 0.1 1.3 -1
v 0.2 0.7 -1
v 0.2 1 -1
v 0.3 0.7 -1
v 0.3 1.2 -1
v 0.4 0.7 -1
v 0.4 1.2 -1
v 0.6 1.2 -1
v 0.6 1.3 -1
v 0.8 0.1 -1
v 0.8 0.4 -1
v 0.8 0.5 -1
v 0.8 1.5 -1
v 0.8 1.6 -1
v 0.8 1.9 -1
v 0.9 0 -1
v 0.9 2 -1
v -0.9 0 0.9
v 0.9 0 0.9
v -0.8 0 0.8
v -0.7 0 0.8
v -0.1 0 0.8
v 0.1 0 0.8
v 0.7 0 0.8
v 0.8 0 0.8
v -0.7 0 0.7
v -0.6 0 0.7
v 0 0 0.7
v 0.1 0 0.7
v 0.6 0 0.7
v 0.7 0 0.7
v 0.8 0 0.7
v -0.8 0 0.6
v -0.7 0 0.6
v -0.6 0 0.6
v -0.4 0 0.6
v 0.4 0 0.6
v 0.6 0 0.6
v 0.7 0 0.6
v -0.7 0 0.5
v -0.5 0 0.5
v -0.4 0 0.5
v -0.2 0 0.5
v 0.3 0 0.5
v 0.4 0 0.5
v 0.5 0 0.5
v 0.6 0 0.5
v -0.5 0 0.4
v -0.3 0 0.4
v -0.2 0 0.4
v -0.1 0 0.4
v 0.2 0 0.4
v 0.3 0 0.4
v 0.4 0 0.4
v 0.5 0 0.4
v -0.3 0 0.3
v -0.2 0 0.3
v 0 0 0.3
v 0.2 0 0.3
v 0.4 0 0.3
v -0.2 0 0.2
v -0.1 0 0.2
v 0.1 0 0.2
v 0.2 0 0.2
v 0.1 0 0.1
v 0.2 0 0.1
v 0.2 0 0
v 0.4 0 0
v -0.2 0 -0.1
v -0.1 0 -0.1
v 0.1 0 -0.1
v 0.3 0 -0.1
v 0.4 0 -0.1
v 0.5 0 -0.1
v -0.4 0 -0.2
v -0.2 0 -0.2
v 0 0 -0.2
v 0.3 0 -0.2
v 0.4 0 -0.2
v 0.5 0 -0.2
v 0.6 0 -0.2
v -0.5 0 -0.3
v -0.4 0 -0.3
v -0.3 0 -0.3
v -0.2 0 -0.3
v 0.4 0 -0.3
v 0.5 0 -0.3
v -0.6 0 -0.4
v -0.5 0 -0.4
v -0.4 0 -0.4
v -0.3 0 -0.4
v -0.5 0 -0.5
v -0.4 0 -0.5
v 0.5 0 -0.5
v 0.6 0 -0.5
v 0.7 0 -0.5
v -0.7 0 -0.6
v -0.6 0 -0.6
v -0.8 0 -0.7
v -0.7 0 -0.7
v -0.6 0 -0.7
v -0.5 0 -0.7
v 0.7 0 -0.7
v 0.8 0 -0.7
v -0.7 0 -0.8
v -0.6 0 -0.8
v 0.6 0 -0.8
v 0.7 0 -0.8
v -0.8 0 -0.9
v -0.7 0 -0.9
v 0 0 -0.9
v 0.1 0 -0.9
v 0.7 0 -0.9
v 0.8 0 -0.9
v -0.9 0 -1
v 0.9 0 -1
v -0.9 2 0.9
v 0.9 2 0.9
v -0.8 2 0.8
v -0.7 2 0.8
v -0.1 2 0.8
v 0.1 2 0.8
v 0.7 2 0.8
v 0.8 2 0.8
v -0.7 2 0.7
v -0.6 2 0.7
v 0 2 0.7
v 0.1 2 0.7
v 0.6 2 0.7
v 0.7 2 0.7
v 0.8 2 0.7
v -0.8 2 0.6
v -0.7 2 0.6
v -0.6 2 0.6
v -0.4 2 0.6
v 0.4 2 0.6
v 0.6 2 0.6
v 0.7 2 0.6
v -0.7 2 0.5
v -0.5 2 0.5
v -0.4 2 0.5
v -0.2 2 0.5
v 0.3 2 0.5
v 0.4 2 0.5
v 0.5 2 0.5
v 0.6 2 0.5
v -0.5 2 0.4
v -0.3 2 0.4
v -0.2 2 0.4
v -0.1 2 0.4
v 0.2 2 0.4
v 0.3 2 0.4
v 0.4 2 0.4
v 0.5 2 0.4
v -0.3 2 0.3
v -0.2 2 0.3
v 0 2 0.3
v 0.2 2 0.3
v 0.4 2 0.3
v -0.2 2 0.2
v -0.1 2 0.2
v 0.1 2 0.2
v 0.2 2 0.2
v 0.1 2 0.1
v 0.2 2 0.1
v 0.2 2 0
v 0.4 2 0
v -0.2 2 -0.1
v -0.1 2 -0.1
v 0.1 2 -0.1
v 0.3 2 -0.1
v 0.4 2 -0.1
v 0.5 2 -0.1
v -0.4 2 -0.2
v -0.2 2 -0.2
v 0 2 -0.2
v 0.3 2 -0.2
v 0.4 2 -0.2
v 0.5 2 -0.2
v 0.6 2 -0.2
v -0.5 2 -0.3
v -0.4 2 -0.3
v -0.3 2 -0.3
v -0.2 2 -0.3
v 0.4 2 -0.3
v 0.5 2 -0.3
v -0.6 2 -0.4
v -0.5 2 -0.4
v -0.4 2 -0.4
v -0.3 2 -0.4
v -0.5 2 -0.5
v -0.4 2 -0.5
v 0.5 2 -0.5
v 0.6 2 -0.5
v 0.7 2 -0.5
v -0.7 2 -0.6
v -0.6 2 -0.6
v -0.8 2 -0.7
v -0.7 2 -0.7
v -0.6 2 -0.7
v -0.5 2 -0.7
v 0.7 2 -0.7
v 0.8 2 -0.7
v -0.7 2 -0.8
v -0.6 2 -0.8
v 0.6 2 -0.8
v 0.7 2 -0.8
v -0.8 2 -0.9
v -0.7 2 -0.9
v 0 2 -0.9
v 0.1 2 -0.9
v 0.7 2 -0.9
v 0.8 2 -0.9
v -0.9 2 -1
v 0.9 2 -1

# faces
f 3/1/1 2/1/1 1/1/1
f 4/1/1 2/1/1 3/1/1
f 5/1/1 3/1/1 1/1/1
f 5/2/1 4/2/1 3/2/1
f 6/1/1 2/1/1 4/1/1
f 6/2/1 4/2/1 5/2/1
f 7/1/1 5/1/1 1/1/1
f 7/6/1 6/6/1 5/6/1
f 8/1/1 2/1/1 6/1/1
f 8/6/1 6/6/1 7/6/1
f 9/3/1 8/3/1 7/3/1
f 10/3/1 8/3/1 9/3/1
f 11/3/1 8/3/1 10/3/1
f 12/3/1 8/3/1 11/3/1
f 13/3/1 8/3/1 12/3/1
f 14/3/1 8/3/1 13/3/1
f 15/3/1 8/3/1 14/3/1
f 16/3/1 8/3/1 15/3/1
f 17/3/1 11/3/1 10/3/1
f 17/6/1 12/6/1 11/6/1
f 18/3/1 13/3/1 12/3/1
f 18/6/1 12/6/1 17/6/1
f 19/6/1 14/6/1 13/6/1
f 19/3/1 13/3/1 18/3/1
f 20/3/1 15/3/1 14/3/1
f 20/6/1 14/6/1 19/6/1
f 21/3/1 18/3/1 17/3/1
f 21/6/1 19/6/1 18/6/1
f 22/3/1 20/3/1 19/3/1
f 22/6/1 19/6/1 21/6/1
f 23/3/1 9/3/1 7/3/1
f 24/6/1 10/6/1 9/6/1
f 24/3/1 9/3/1 23/3/1
f 25/3/1 17/3/1 10/3/1
f 25/6/1 10/6/1 24/6/1
f 25/3/1 21/3/1 17/3/1
f 25/3/1 22/3/1 21/3/1
f 26/3/1 22/3/1 25/3/1
f 27/3/1 20/3/1 22/3/1
f 27/3/1 22/3/1 26/3/1
f 28/6/1 16/6/1 15/6/1
f 28/3/1 20/3/1 27/3/1
f 28/3/1 15/3/1 20/3/1
f 29/3/1 8/3/1 16/3/1
f 29/6/1 16/6/1 28/6/1
f 30/3/1 8/3/1 29/3/1
f 31/6/1 26/6/1 25/6/1
f 31/3/1 23/3/1 7/3/1
f 31/6/1 24/6/1 23/6/1
f 31/6/1 25/6/1 24/6/1
f 32/3/1 27/3/1 26/3/1
f 32/6/1 26/6/1 31/6/1
f 33/6/1 30/6/1 29/6/1
f 33/3/1 27/3/1 32/3/1
f 33/6/1 28/6/1 27/6/1
f 33/6/1 29/6/1 28/6/1
f 34/3/1 8/3/1 30/3/1
f 34/6/1 30/6/1 33/6/1
f 35/1/1 7/1/1 1/1/1
f 35/3/1 33/3/1 32/3/1
f 35/3/1 34/3/1 33/3/1
f 35/3/1 31/3/1 7/3/1
f 35/3/1 32/3/1 31/3/1
f 36/3/1 8/3/1 34/3/1
f 36/3/1 34/3/1 35/3/1
f 36/1/1 2/1/1 8/1/1
f 37/1/1 35/1/1 1/1/1
f 37/6/1 36/6/1 35/6/1
f 38/1/1 2/1/1 36/1/1
f 38/6/1 36/6/1 37/6/1
f 39/1/1 37/1/1 1/1/1
f 39/2/1 38/2/1 37/2/1
f 40/1/1 2/1/1 38/1/1
f 40/2/1 38/2/1 39/2/1
f 41/1/1 39/1/1 1/1/1
f 41/1/1 40/1/1 39/1/1
f 42/1/1 2/1/1 40/1/1
f 42/1/1 40/1/1 41/1/1
f 43/1/2 44/1/2 45/1/2
f 45/1/2 44/1/2 46/1/2
f 43/1/2 45/1/2 47/1/2
f 45/2/2 46/2/2 47/2/2
f 46/1/2 44/1/2 48/1/2
f 47/2/2 46/2/2 48/2/2
f 43/1/2 47/1/2 49/1/2
f 47/6/2 48/6/2 49/6/2
f 48/1/2 44/1/2 50/1/2
f 49/6/2 48/6/2 50/6/2
f 49/3/2 50/3/2 51/3/2
f 51/3/2 50/3/2 52/3/2
f 52/3/2 50/3/2 53/3/2
f 53/3/2 50/3/2 54/3/2
f 54/3/2 50/3/2 55/3/2
f 55/3/2 50/3/2 56/3/2
f 56/3/2 50/3/2 57/3/2
f 57/3/2 50/3/2 58/3/2
f 52/3/2 53/3/2 59/3/2
f 53/6/2 54/6/2 59/6/2
f 54/3/2 55/3/2 60/3/2
f 59/6/2 54/6/2 60/6/2
f 55/6/2 56/6/2 61/6/2
f 60/3/2 55/3/2 61/3/2
f 56/3/2 57/3/2 62/3/2
f 61/6/2 56/6/2 62/6/2
f 59/3/2 60/3/2 63/3/2
f 60/6/2 61/6/2 63/6/2
f 61/3/2 62/3/2 64/3/2
f 63/6/2 61/6/2 64/6/2
f 49/3/2 51/3/2 65/3/2
f 51/6/2 52/6/2 66/6/2
f 65/3/2 51/3/2 66/3/2
f 52/3/2 59/3/2 67/3/2
f 66/6/2 52/6/2 67/6/2
f 59/3/2 63/3/2 67/3/2
f 63/3/2 64/3/2 67/3/2
f 67/3/2 64/3/2 68/3/2
f 64/3/2 62/3/2 69/3/2
f 68/3/2 64/3/2 69/3/2
f 57/6/2 58/6/2 70/6/2
f 69/3/2 62/3/2 70/3/2
f 62/3/2 57/3/2 70/3/2
f 58/3/2 50/3/2 71/3/2
f 70/6/2 58/6/2 71/6/2
f 71/3/2 50/3/2 72/3/2
f 67/6/2 68/6/2 73/6/2
f 49/3/2 65/3/2 73/3/2
f 65/6/2 66/6/2 73/6/2
f 66/6/2 67/6/2 73/6/2
f 68/3/2 69/3/2 74/3/2
f 73/6/2 68/6/2 74/6/2
f 71/6/2 72/6/2 75/6/2
f 74/3/2 69/3/2 75/3/2
f 69/6/2 70/6/2 75/6/2
f 70/6/2 71/6/2 75/6/2
f 72/3/2 50/3/2 76/3/2
f 75/6/2 72/6/2 76/6/2
f 43/1/2 49/1/2 77/1/2
f 74/3/2 75/3/2 77/3/2
f 75/3/2 76/3/2 77/3/2
f 49/3/2 73/3/2 77/3/2
f 73/3/2 74/3/2 77/3/2
f 76/3/2 50/3/2 78/3/2
f 77/3/2 76/3/2 78/3/2
f 50/1/2 44/1/2 78/1/2
f 43/1/2 77/1/2 79/1/2
f 77/6/2 78/6/2 79/6/2
f 78/1/2 44/1/2 80/1/2
f 79/6/2 78/6/2 80/6/2
f 43/1/2 79/1/2 81/1/2
f 79/2/2 80/2/2 81/2/2
f 80/1/2 44/1/2 82/1/2
f 81/2/2 80/2/2 82/2/2
f 43/1/2 81/1/2 83/1/2
f 81/1/2 82/1/2 83/1/2
f 82/1/2 44/1/2 84/1/2
f 83/1/2 82/1/2 84/1/2
f 87/1/3 86/1/3 85/1/3
f 88/1/3 86/1/3 87/1/3
f 89/1/3 86/1/3 88/1/3
f 90/1/3 86/1/3 89/1/3
f 91/1/3 86/1/3 90/1/3
f 92/1/3 86/1/3 91/1/3
f 93/3/3 90/3/3 89/3/3
f 94/3/3 90/3/3 93/3/3
f 95/3/3 93/3/3 89/3/3
f 96/6/3 94/6/3 93/6/3
f 96/3/3 93/3/3 95/3/3
f 97/3/3 95/3/3 89/3/3
f 97/6/3 96/6/3 95/6/3
f 98/6/3 94/6/3 96/6/3
f 98/6/3 96/6/3 97/6/3
f 99/3/3 97/3/3 89/3/3
f 99/3/3 98/3/3 97/3/3
f 100/3/3 98/3/3 99/3/3
f 101/3/3 99/3/3 89/3/3
f 101/6/3 100/6/3 99/6/3
f 102/3/3 98/3/3 100/3/3
f 102/6/3 100/6/3 101/6/3
f 103/3/3 98/3/3 102/3/3
f 104/6/3 94/6/3 98/6/3
f 104/3/3 98/3/3 103/3/3
f 105/3/3 90/3/3 94/3/3
f 105/6/3 94/6/3 104/6/3
f 106/3/3 101/3/3 89/3/3
f 106/3/3 102/3/3 101/3/3
f 107/6/3 103/6/3 102/6/3
f 107/3/3 102/3/3 106/3/3
f 108/3/3 104/3/3 103/3/3
f 108/6/3 103/6/3 107/6/3
f 108/3/3 105/3/3 104/3/3
f 109/3/3 105/3/3 108/3/3
f 110/3/3 90/3/3 105/3/3
f 110/3/3 105/3/3 109/3/3
f 111/6/3 107/6/3 106/6/3
f 111/3/3 106/3/3 89/3/3
f 112/3/3 109/3/3 108/3/3
f 112/6/3 107/6/3 111/6/3
f 112/3/3 108/3/3 107/3/3
f 113/3/3 111/3/3 89/3/3
f 113/3/3 112/3/3 111/3/3
f 114/6/3 110/6/3 109/6/3
f 114/3/3 112/3/3 113/3/3
f 114/3/3 109/3/3 112/3/3
f 115/3/3 113/3/3 89/3/3
f 115/6/3 114/6/3 113/6/3
f 116/6/3 110/6/3 114/6/3
f 116/6/3 114/6/3 115/6/3
f 117/3/3 116/3/3 115/3/3
f 117/6/3 110/6/3 116/6/3
f 118/3/3 90/3/3 110/3/3
f 118/6/3 110/6/3 117/6/3
f 119/1/3 87/1/3 85/1/3
f 119/2/3 88/2/3 87/2/3
f 120/6/3 89/6/3 88/6/3
f 120/2/3 88/2/3 119/2/3
f 121/3/3 118/3/3 117/3/3
f 121/6/3 89/6/3 120/6/3
f 121/3/3 117/3/3 115/3/3
f 121/3/3 115/3/3 89/3/3
f 122/3/3 90/3/3 118/3/3
f 122/3/3 118/3/3 121/3/3
f 122/6/3 91/6/3 90/6/3
f 123/2/3 92/2/3 91/2/3
f 123/6/3 91/6/3 122/6/3
f 124/1/3 86/1/3 92/1/3
f 124/2/3 92/2/3 123/2/3
f 125/1/3 121/1/3 120/1/3
f 125/1/3 120/1/3 119/1/3
f 125/1/3 124/1/3 123/1/3
f 125/1/3 122/1/3 121/1/3
f 125/1/3 123/1/3 122/1/3
f 125/1/3 119/1/3 85/1/3
f 126/1/3 86/1/3 124/1/3
f 126/1/3 124/1/3 125/1/3
f 127/1/4 128/1/4 129/1/4
f 129/1/4 128/1/4 130/1/4
f 130/1/4 128/1/4 131/1/4
f 131/1/4 128/1/4 132/1/4
f 132/1/4 128/1/4 133/1/4
f 133/1/4 128/1/4 134/1/4
f 131/3/4 132/3/4 135/3/4
f 135/3/4 132/3/4 136/3/4
f 131/3/4 135/3/4 137/3/4
f 135/6/4 136/6/4 138/6/4
f 137/3/4 135/3/4 138/3/4
f 131/3/4 137/3/4 139/3/4
f 137/6/4 138/6/4 139/6/4
f 138/6/4 136/6/4 140/6/4
f 139/6/4 138/6/4 140/6/4
f 131/3/4 139/3/4 141/3/4
f 139/3/4 140/3/4 141/3/4
f 141/3/4 140/3/4 142/3/4
f 131/3/4 141/3/4 143/3/4
f 141/6/4 142/6/4 143/6/4
f 142/3/4 140/3/4 144/3/4
f 143/6/4 142/6/4 144/6/4
f 144/3/4 140/3/4 145/3/4
f 140/6/4 136/6/4 146/6/4
f 145/3/4 140/3/4 146/3/4
f 136/3/4 132/3/4 147/3/4
f 146/6/4 136/6/4 147/6/4
f 131/3/4 143/3/4 148/3/4
f 143/3/4 144/3/4 148/3/4
f 144/6/4 145/6/4 149/6/4
f 148/3/4 144/3/4 149/3/4
f 145/3/4 146/3/4 150/3/4
f 149/6/4 145/6/4 150/6/4
f 146/3/4 147/3/4 150/3/4
f 150/3/4 147/3/4 151/3/4
f 147/3/4 132/3/4 152/3/4
f 151/3/4 147/3/4 152/3/4
f 148/6/4 149/6/4 153/6/4
f 131/3/4 148/3/4 153/3/4
f 150/3/4 151/3/4 154/3/4
f 153/6/4 149/6/4 154/6/4
f 149/3/4 150/3/4 154/3/4
f 131/3/4 153/3/4 155/3/4
f 153/3/4 154/3/4 155/3/4
f 151/6/4 152/6/4 156/6/4
f 155/3/4 154/3/4 156/3/4
f 154/3/4 151/3/4 156/3/4
f 131/3/4 155/3/4 157/3/4
f 155/6/4 156/6/4 157/6/4
f 156/6/4 152/6/4 158/6/4
f 157/6/4 156/6/4 158/6/4
f 157/3/4 158/3/4 159/3/4
f 158/6/4 152/6/4 159/6/4
f 152/3/4 132/3/4 160/3/4
f 159/6/4 152/6/4 160/6/4
f 127/1/4 129/1/4 161/1/4
f 129/2/4 130/2/4 161/2/4
f 130/6/4 131/6/4 162/6/4
f 161/2/4 130/2/4 162/2/4
f 159/3/4 160/3/4 163/3/4
f 162/6/4 131/6/4 163/6/4
f 157/3/4 159/3/4 163/3/4
f 131/3/4 157/3/4 163/3/4
f 160/3/4 132/3/4 164/3/4
f 163/3/4 160/3/4 164/3/4
f 132/6/4 133/6/4 164/6/4
f 133/2/4 134/2/4 165/2/4
f 164/6/4 133/6/4 165/6/4
f 134/1/4 128/1/4 166/1/4
f 165/2/4 134/2/4 166/2/4
f 162/1/4 163/1/4 167/1/4
f 161/1/4 162/1/4 167/1/4
f 165/1/4 166/1/4 167/1/4
f 163/1/4 164/1/4 167/1/4
f 164/1/4 165/1/4 167/1/4
f 127/1/4 161/1/4 167/1/4
f 166/1/4 128/1/4 168/1/4
f 167/1/4 166/1/4 168/1/4
f 171/1/5 170/1/5 169/1/5
f 172/1/5 170/1/5 171/1/5
f 173/1/5 170/1/5 172/1/5
f 174/1/5 170/1/5 173/1/5
f 175/1/5 170/1/5 174/1/5
f 176/1/5 170/1/5 175/1/5
f 177/5/5 172/5/5 171/5/5
f 177/4/5 173/4/5 172/4/5
f 178/4/5 173/4/5 177/4/5
f 179/5/5 174/5/5 173/5/5
f 180/4/5 175/4/5 174/4/5
f 180/5/5 174/5/5 179/5/5
f 181/4/5 175/4/5 180/4/5
f 182/5/5 176/5/5 175/5/5
f 182/4/5 175/4/5 181/4/5
f 183/1/5 170/1/5 176/1/5
f 183/5/5 176/5/5 182/5/5
f 184/1/5 171/1/5 169/1/5
f 184/5/5 177/5/5 171/5/5
f 184/5/5 178/5/5 177/5/5
f 185/5/5 178/5/5 184/5/5
f 186/4/5 173/4/5 178/4/5
f 186/5/5 178/5/5 185/5/5
f 187/4/5 173/4/5 186/4/5
f 188/4/5 181/4/5 180/4/5
f 188/4/5 180/4/5 179/4/5
f 189/5/5 182/5/5 181/5/5
f 189/4/5 181/4/5 188/4/5
f 190/4/5 183/4/5 182/4/5
f 190/5/5 182/5/5 189/5/5
f 191/4/5 185/4/5 184/4/5
f 191/5/5 187/5/5 186/5/5
f 191/5/5 186/5/5 185/5/5
f 192/5/5 187/5/5 191/5/5
f 193/4/5 173/4/5 187/4/5
f 193/5/5 187/5/5 192/5/5
f 194/4/5 173/4/5 193/4/5
f 195/4/5 188/4/5 179/4/5
f 196/5/5 189/5/5 188/5/5
f 196/4/5 188/4/5 195/4/5
f 197/5/5 189/5/5 196/5/5
f 198/4/5 190/4/5 189/4/5
f 198/5/5 189/5/5 197/5/5
f 199/4/5 192/4/5 191/4/5
f 199/5/5 193/5/5 192/5/5
f 199/5/5 194/5/5 193/5/5
f 200/5/5 194/5/5 199/5/5
f 201/4/5 173/4/5 194/4/5
f 201/5/5 194/5/5 200/5/5
f 202/5/5 179/5/5 173/5/5
f 202/4/5 173/4/5 201/4/5
f 203/4/5 195/4/5 179/4/5
f 204/5/5 197/5/5 196/5/5
f 204/4/5 195/4/5 203/4/5
f 204/5/5 196/5/5 195/5/5
f 205/5/5 197/5/5 204/5/5
f 206/4/5 198/4/5 197/4/5
f 206/5/5 197/5/5 205/5/5
f 207/4/5 200/4/5 199/4/5
f 207/5/5 201/5/5 200/5/5
f 207/5/5 202/5/5 201/5/5
f 208/5/5 202/5/5 207/5/5
f 209/5/5 179/5/5 202/5/5
f 209/5/5 202/5/5 208/5/5
f 209/4/5 203/4/5 179/4/5
f 210/5/5 205/5/5 204/5/5
f 210/4/5 203/4/5 209/4/5
f 210/5/5 204/5/5 203/5/5
f 211/4/5 206/4/5 205/4/5
f 211/5/5 205/5/5 210/5/5
f 212/5/5 210/5/5 209/5/5
f 212/4/5 208/4/5 207/4/5
f 212/5/5 209/5/5 208/5/5
f 213/5/5 210/5/5 212/5/5
f 214/5/5 210/5/5 213/5/5
f 215/4/5 211/4/5 210/4/5
f 215/5/5 210/5/5 214/5/5
f 216/5/5 214/5/5 213/5/5
f 216/4/5 215/4/5 214/4/5
f 217/4/5 211/4/5 215/4/5
f 217/4/5 215/4/5 216/4/5
f 218/5/5 217/5/5 216/5/5
f 218/4/5 211/4/5 217/4/5
f 219/4/5 206/4/5 211/4/5
f 219/4/5 211/4/5 218/4/5
f 220/4/5 212/4/5 207/4/5
f 220/4/5 213/4/5 212/4/5
f 221/5/5 218/5/5 216/5/5
f 221/4/5 213/4/5 220/4/5
f 221/5/5 216/5/5 213/5/5
f 221/5/5 219/5/5 218/5/5
f 222/5/5 219/5/5 221/5/5
f 223/5/5 219/5/5 222/5/5
f 224/4/5 206/4/5 219/4/5
f 224/5/5 219/5/5 223/5/5
f 225/4/5 198/4/5 206/4/5
f 225/4/5 206/4/5 224/4/5
f 226/4/5 220/4/5 207/4/5
f 226/4/5 207/4/5 199/4/5
f 227/5/5 221/5/5 220/5/5
f 227/4/5 220/4/5 226/4/5
f 227/5/5 222/5/5 221/5/5
f 228/5/5 222/5/5 227/5/5
f 229/5/5 224/5/5 223/5/5
f 229/4/5 223/4/5 222/4/5
f 229/5/5 225/5/5 224/5/5
f 230/5/5 225/5/5 229/5/5
f 231/4/5 198/4/5 225/4/5
f 231/5/5 225/5/5 230/5/5
f 232/4/5 190/4/5 198/4/5
f 232/4/5 198/4/5 231/4/5
f 233/4/5 199/4/5 191/4/5
f 233/4/5 226/4/5 199/4/5
f 234/5/5 227/5/5 226/5/5
f 234/4/5 226/4/5 233/4/5
f 235/5/5 227/5/5 234/5/5
f 236/4/5 228/4/5 227/4/5
f 236/5/5 227/5/5 235/5/5
f 237/5/5 231/5/5 230/5/5
f 237/4/5 230/4/5 229/4/5
f 237/5/5 232/5/5 231/5/5
f 238/5/5 232/5/5 237/5/5
f 239/4/5 233/4/5 191/4/5
f 240/5/5 235/5/5 234/5/5
f 240/4/5 233/4/5 239/4/5
f 240/5/5 234/5/5 233/5/5
f 241/5/5 235/5/5 240/5/5
f 242/4/5 236/4/5 235/4/5
f 242/5/5 235/5/5 241/5/5
f 243/5/5 241/5/5 240/5/5
f 243/5/5 240/5/5 239/5/5
f 244/4/5 242/4/5 241/4/5
f 244/5/5 241/5/5 243/5/5
f 245/5/5 232/5/5 238/5/5
f 245/4/5 238/4/5 237/4/5
f 246/4/5 190/4/5 232/4/5
f 246/5/5 232/5/5 245/5/5
f 247/4/5 183/4/5 190/4/5
f 247/4/5 190/4/5 246/4/5
f 248/4/5 239/4/5 191/4/5
f 248/4/5 191/4/5 184/4/5
f 249/5/5 243/5/5 239/5/5
f 249/4/5 239/4/5 248/4/5
f 250/1/5 184/1/5 169/1/5
f 250/4/5 248/4/5 184/4/5
f 251/5/5 249/5/5 248/5/5
f 251/4/5 248/4/5 250/4/5
f 252/5/5 243/5/5 249/5/5
f 252/5/5 249/5/5 251/5/5
f 253/4/5 244/4/5 243/4/5
f 253/5/5 243/5/5 252/5/5
f 254/4/5 183/4/5 247/4/5
f 254/5/5 247/5/5 246/5/5
f 255/1/5 170/1/5 183/1/5
f 255/4/5 183/4/5 254/4/5
f 256/5/5 251/5/5 250/5/5
f 256/5/5 252/5/5 251/5/5
f 257/4/5 253/4/5 252/4/5
f 257/5/5 252/5/5 256/5/5
f 258/5/5 254/5/5 246/5/5
f 258/4/5 246/4/5 245/4/5
f 258/5/5 255/5/5 254/5/5
f 259/5/5 255/5/5 258/5/5
f 260/5/5 256/5/5 250/5/5
f 260/1/5 250/1/5 169/1/5
f 261/4/5 257/4/5 256/4/5
f 261/5/5 256/5/5 260/5/5
f 262/4/5 253/4/5 257/4/5
f 262/4/5 257/4/5 261/4/5
f 262/5/5 222/5/5 228/5/5
f 262/4/5 228/4/5 236/4/5
f 262/4/5 236/4/5 242/4/5
f 262/4/5 244/4/5 253/4/5
f 262/4/5 242/4/5 244/4/5
f 263/4/5 258/4/5 245/4/5
f 263/5/5 222/5/5 262/5/5
f 263/4/5 237/4/5 229/4/5
f 263/4/5 229/4/5 222/4/5
f 263/4/5 259/4/5 258/4/5
f 263/4/5 245/4/5 237/4/5
f 264/5/5 255/5/5 259/5/5
f 264/4/5 259/4/5 263/4/5
f 265/1/5 170/1/5 255/1/5
f 265/5/5 255/5/5 264/5/5
f 266/1/5 261/1/5 260/1/5
f 266/1/5 262/1/5 261/1/5
f 266/1/5 265/1/5 264/1/5
f 266/1/5 264/1/5 263/1/5
f 266/1/5 260/1/5 169/1/5
f 266/1/5 263/1/5 262/1/5
f 267/1/5 170/1/5 265/1/5
f 267/1/5 265/1/5 266/1/5
f 268/1/6 269/1/6 270/1/6
f 270/1/6 269/1/6 271/1/6
f 271/1/6 269/1/6 272/1/6
f 272/1/6 269/1/6 273/1/6
f 273/1/6 269/1/6 274/1/6
f 274/1/6 269/1/6 275/1/6
f 270/5/6 271/5/6 276/5/6
f 271/4/6 272/4/6 276/4/6
f 276/4/6 272/4/6 277/4/6
f 272/5/6 273/5/6 278/5/6
f 273/4/6 274/4/6 279/4/6
f 278/5/6 273/5/6 279/5/6
f 279/4/6 274/4/6 280/4/6
f 274/5/6 275/5/6 281/5/6
f 280/4/6 274/4/6 281/4/6
f 275/1/6 269/1/6 282/1/6
f 281/5/6 275/5/6 282/5/6
f 268/1/6 270/1/6 283/1/6
f 270/5/6 276/5/6 283/5/6
f 276/5/6 277/5/6 283/5/6
f 283/5/6 277/5/6 284/5/6
f 277/4/6 272/4/6 285/4/6
f 284/5/6 277/5/6 285/5/6
f 285/4/6 272/4/6 286/4/6
f 279/4/6 280/4/6 287/4/6
f 278/4/6 279/4/6 287/4/6
f 280/5/6 281/5/6 288/5/6
f 287/4/6 280/4/6 288/4/6
f 281/4/6 282/4/6 289/4/6
f 288/5/6 281/5/6 289/5/6
f 283/4/6 284/4/6 290/4/6
f 285/5/6 286/5/6 290/5/6
f 284/5/6 285/5/6 290/5/6
f 290/5/6 286/5/6 291/5/6
f 286/4/6 272/4/6 292/4/6
f 291/5/6 286/5/6 292/5/6
f 292/4/6 272/4/6 293/4/6
f 278/4/6 287/4/6 294/4/6
f 287/5/6 288/5/6 295/5/6
f 294/4/6 287/4/6 295/4/6
f 295/5/6 288/5/6 296/5/6
f 288/4/6 289/4/6 297/4/6
f 296/5/6 288/5/6 297/5/6
f 290/4/6 291/4/6 298/4/6
f 291/5/6 292/5/6 298/5/6
f 292/5/6 293/5/6 298/5/6
f 298/5/6 293/5/6 299/5/6
f 293/4/6 272/4/6 300/4/6
f 299/5/6 293/5/6 300/5/6
f 272/5/6 278/5/6 301/5/6
f 300/4/6 272/4/6 301/4/6
f 278/4/6 294/4/6 302/4/6
f 295/5/6 296/5/6 303/5/6
f 302/4/6 294/4/6 303/4/6
f 294/5/6 295/5/6 303/5/6
f 303/5/6 296/5/6 304/5/6
f 296/4/6 297/4/6 305/4/6
f 304/5/6 296/5/6 305/5/6
f 298/4/6 299/4/6 306/4/6
f 299/5/6 300/5/6 306/5/6
f 300/5/6 301/5/6 306/5/6
f 306/5/6 301/5/6 307/5/6
f 301/5/6 278/5/6 308/5/6
f 307/5/6 301/5/6 308/5/6
f 278/4/6 302/4/6 308/4/6
f 303/5/6 304/5/6 309/5/6
f 308/4/6 302/4/6 309/4/6
f 302/5/6 303/5/6 309/5/6
f 304/4/6 305/4/6 310/4/6
f 309/5/6 304/5/6 310/5/6
f 308/5/6 309/5/6 311/5/6
f 306/4/6 307/4/6 311/4/6
f 307/5/6 308/5/6 311/5/6
f 311/5/6 309/5/6 312/5/6
f 312/5/6 309/5/6 313/5/6
f 309/4/6 310/4/6 314/4/6
f 313/5/6 309/5/6 314/5/6
f 312/5/6 313/5/6 315/5/6
f 313/4/6 314/4/6 315/4/6
f 314/4/6 310/4/6 316/4/6
f 315/4/6 314/4/6 316/4/6
f 315/5/6 316/5/6 317/5/6
f 316/4/6 310/4/6 317/4/6
f 310/4/6 305/4/6 318/4/6
f 317/4/6 310/4/6 318/4/6
f 306/4/6 311/4/6 319/4/6
f 311/4/6 312/4/6 319/4/6
f 315/5/6 317/5/6 320/5/6
f 319/4/6 312/4/6 320/4/6
f 312/5/6 315/5/6 320/5/6
f 317/5/6 318/5/6 320/5/6
f 320/5/6 318/5/6 321/5/6
f 321/5/6 318/5/6 322/5/6
f 318/4/6 305/4/6 323/4/6
f 322/5/6 318/5/6 323/5/6
f 305/4/6 297/4/6 324/4/6
f 323/4/6 305/4/6 324/4/6
f 306/4/6 319/4/6 325/4/6
f 298/4/6 306/4/6 325/4/6
f 319/5/6 320/5/6 326/5/6
f 325/4/6 319/4/6 326/4/6
f 320/5/6 321/5/6 326/5/6
f 326/5/6 321/5/6 327/5/6
f 322/5/6 323/5/6 328/5/6
f 321/4/6 322/4/6 328/4/6
f 323/5/6 324/5/6 328/5/6
f 328/5/6 324/5/6 329/5/6
f 324/4/6 297/4/6 330/4/6
f 329/5/6 324/5/6 330/5/6
f 297/4/6 289/4/6 331/4/6
f 330/4/6 297/4/6 331/4/6
f 290/4/6 298/4/6 332/4/6
f 298/4/6 325/4/6 332/4/6
f 325/5/6 326/5/6 333/5/6
f 332/4/6 325/4/6 333/4/6
f 333/5/6 326/5/6 334/5/6
f 326/4/6 327/4/6 335/4/6
f 334/5/6 326/5/6 335/5/6
f 329/5/6 330/5/6 336/5/6
f 328/4/6 329/4/6 336/4/6
f 330/5/6 331/5/6 336/5/6
f 336/5/6 331/5/6 337/5/6
f 290/4/6 332/4/6 338/4/6
f 333/5/6 334/5/6 339/5/6
f 338/4/6 332/4/6 339/4/6
f 332/5/6 333/5/6 339/5/6
f 339/5/6 334/5/6 340/5/6
f 334/4/6 335/4/6 341/4/6
f 340/5/6 334/5/6 341/5/6
f 339/5/6 340/5/6 342/5/6
f 338/5/6 339/5/6 342/5/6
f 340/4/6 341/4/6 343/4/6
f 342/5/6 340/5/6 343/5/6
f 337/5/6 331/5/6 344/5/6
f 336/4/6 337/4/6 344/4/6
f 331/4/6 289/4/6 345/4/6
f 344/5/6 331/5/6 345/5/6
f 289/4/6 282/4/6 346/4/6
f 345/4/6 289/4/6 346/4/6
f 290/4/6 338/4/6 347/4/6
f 283/4/6 290/4/6 347/4/6
f 338/5/6 342/5/6 348/5/6
f 347/4/6 338/4/6 348/4/6
f 268/1/6 283/1/6 349/1/6
f 283/4/6 347/4/6 349/4/6
f 347/5/6 348/5/6 350/5/6
f 349/4/6 347/4/6 350/4/6
f 348/5/6 342/5/6 351/5/6
f 350/5/6 348/5/6 351/5/6
f 342/4/6 343/4/6 352/4/6
f 351/5/6 342/5/6 352/5/6
f 346/4/6 282/4/6 353/4/6
f 345/5/6 346/5/6 353/5/6
f 282/1/6 269/1/6 354/1/6
f 353/4/6 282/4/6 354/4/6
f 349/5/6 350/5/6 355/5/6
f 350/5/6 351/5/6 355/5/6
f 351/4/6 352/4/6 356/4/6
f 355/5/6 351/5/6 356/5/6
f 345/5/6 353/5/6 357/5/6
f 344/4/6 345/4/6 357/4/6
f 353/5/6 354/5/6 357/5/6
f 357/5/6 354/5/6 358/5/6
f 349/5/6 355/5/6 359/5/6
f 268/1/6 349/1/6 359/1/6
f 355/4/6 356/4/6 360/4/6
f 359/5/6 355/5/6 360/5/6
f 356/4/6 352/4/6 361/4/6
f 360/4/6 356/4/6 361/4/6
f 327/5/6 321/5/6 361/5/6
f 335/4/6 327/4/6 361/4/6
f 341/4/6 335/4/6 361/4/6
f 352/4/6 343/4/6 361/4/6
f 343/4/6 341/4/6 361/4/6
f 344/4/6 357/4/6 362/4/6
f 361/5/6 321/5/6 362/5/6
f 328/4/6 336/4/6 362/4/6
f 321/4/6 328/4/6 362/4/6
f 357/4/6 358/4/6 362/4/6
f 336/4/6 344/4/6 362/4/6
f 358/5/6 354/5/6 363/5/6
f 362/4/6 358/4/6 363/4/6
f 354/1/6 269/1/6 364/1/6
f 363/5/6 354/5/6 364/5/6
f 359/1/6 360/1/6 365/1/6
f 360/1/6 361/1/6 365/1/6
f 363/1/6 364/1/6 365/1/6
f 362/1/6 363/1/6 365/1/6
f 268/1/6 359/1/6 365/1/6
f 361/1/6 362/1/6 365/1/6
f 364/1/6 269/1/6 366/1/6
f 365/1/6 364/1/6 366/1/6
